<svg width="128" height="128" viewBox="0 0 128 128" fill="none" xmlns="http://www.w3.org/2000/svg">
<circle cx="116" cy="64" r="10.5" fill="#0092E3" stroke="white" stroke-width="3"/>
<mask id="path-2-inside-1" fill="white">
<path fill-rule="evenodd" clip-rule="evenodd" d="M53.896 2H0V125H53.896H54.8487V124.99C83.7377 124.402 107 97.097 107 63.5C107 29.903 83.7377 2.59828 54.8487 2.0097V2H53.896Z"/>
</mask>
<path fill-rule="evenodd" clip-rule="evenodd" d="M53.896 2H0V125H53.896H54.8487V124.99C83.7377 124.402 107 97.097 107 63.5C107 29.903 83.7377 2.59828 54.8487 2.0097V2H53.896Z" fill="#0092E3"/>
<path d="M0 2V-1H-3V2H0ZM0 125H-3V128H0V125ZM54.8487 125V128H57.8487V125H54.8487ZM54.8487 124.99L54.7876 121.991L51.8487 122.051V124.99H54.8487ZM54.8487 2.0097H51.8487V4.9492L54.7876 5.00908L54.8487 2.0097ZM54.8487 2H57.8487V-1H54.8487V2ZM0 5H53.896V-1H0V5ZM3 125V2H-3V125H3ZM53.896 122H0V128H53.896V122ZM54.8487 122H53.896V128H54.8487V122ZM51.8487 124.99V125H57.8487V124.99H51.8487ZM104 63.5C104 95.8764 81.6604 121.443 54.7876 121.991L54.9098 127.99C85.8149 127.36 110 98.3176 110 63.5H104ZM54.7876 5.00908C81.6604 5.55658 104 31.1236 104 63.5H110C110 28.6824 85.8149 -0.360025 54.9098 -0.98968L54.7876 5.00908ZM51.8487 2V2.0097H57.8487V2H51.8487ZM53.896 5H54.8487V-1H53.896V5Z" fill="white" mask="url(#path-2-inside-1)"/>
</svg>
