<svg width="128" height="128" viewBox="0 0 128 128" fill="none" xmlns="http://www.w3.org/2000/svg">
<path fill-rule="evenodd" clip-rule="evenodd" d="M2 4H35.1548Z" fill="#0092E3"/>
<path fill-rule="evenodd" clip-rule="evenodd" d="M2 123L35.1549 123Z" fill="#0092E3"/>
<path d="M107 63.5C99.7188 81.5903 89.2461 96.6126 76.6346 107.057C64.0232 117.501 49.7173 123 35.1549 123L2 123C9.28122 104.91 13.1145 84.3888 13.1145 63.5C13.1145 42.6111 9.28122 22.0903 2 4H35.1548C49.7173 4 64.0231 9.49854 76.6346 19.943C89.246 30.3874 99.7188 45.4097 107 63.5Z" fill="#0092E3"/>
<path d="M107 63.5L108.392 64.0601C108.536 63.7007 108.536 63.2993 108.392 62.9399L107 63.5ZM76.6346 107.057L75.6779 105.902L75.6779 105.902L76.6346 107.057ZM35.1549 123L35.1549 124.5H35.1549V123ZM35.1548 4L35.1548 2.5H35.1548V4ZM76.6346 19.943L77.5913 18.7877L77.5913 18.7877L76.6346 19.943ZM2 4V2.5C1.50169 2.5 1.03592 2.74746 0.756997 3.16039C0.478075 3.57332 0.422425 4.09781 0.608485 4.56008L2 4ZM2 123L0.608485 122.44C0.422425 122.902 0.478075 123.427 0.756996 123.84C1.03592 124.252 1.50169 124.5 2 124.5L2 123ZM105.608 62.9399C98.4027 80.8428 88.0636 95.6443 75.6779 105.902L77.5914 108.212C90.4286 97.5809 101.035 82.3377 108.392 64.0601L105.608 62.9399ZM75.6779 105.902C63.2999 116.153 49.3244 121.5 35.1549 121.5V124.5C50.1102 124.5 64.7465 118.85 77.5914 108.212L75.6779 105.902ZM35.1548 5.5C49.3244 5.5 63.2999 10.8472 75.6778 21.0982L77.5913 18.7877C64.7464 8.14992 50.1101 2.5 35.1548 2.5L35.1548 5.5ZM75.6778 21.0982C88.0636 31.3557 98.4027 46.1572 105.608 64.0601L108.392 62.9399C101.035 44.6623 90.4285 29.4191 77.5913 18.7877L75.6778 21.0982ZM0.608485 4.56008C7.81307 22.46 11.6145 42.7892 11.6145 63.5H14.6145C14.6145 42.433 10.7494 21.7206 3.39152 3.43992L0.608485 4.56008ZM11.6145 63.5C11.6145 84.2107 7.81307 104.54 0.608485 122.44L3.39152 123.56C10.7494 105.279 14.6145 84.5669 14.6145 63.5H11.6145ZM2 5.5H35.1548V2.5H2V5.5ZM2 124.5L35.1549 124.5L35.1549 121.5L2 121.5L2 124.5Z" fill="white"/>
</svg>
